<svg width="24" height="24" viewBox="0 0 24 24" fill="none" stroke="#76B900" stroke-width="2" stroke-linecap="round" stroke-linejoin="round" xmlns="http://www.w3.org/2000/svg">
    <path d="M4.5 16.5c-1.5 1.26-2 5-2 5s3.74-.5 5-2c.71-.84.71-2.13.71-2.13l-4.42-4.42s-1.29 0-2.13.71c-1.5 1.26-2 5-2 5"></path>
    <path d="M15 8s-1.47-1.47-4-2c-2.53-.53-6.5 1-6.5 1s1.5 3.97 1 6.5c-.5 2.53-2 4-2 4s3.5-.5 6-1c2.53-.5 4-2 4-2l6.5-6.5c2.53-2.53 1.5-5.5 1.5-5.5s-2.97-1.03-5.5 1.5L15 8z"></path>
    <line x1="12" y1="12" x2="15" y2="15"></line>
</svg>